<svg width="56" height="56" viewBox="0 0 56 56" fill="none" xmlns="http://www.w3.org/2000/svg">
<path d="M28 56C43.464 56 56 43.464 56 28C56 12.536 43.464 0 28 0C12.536 0 0 12.536 0 28C0 43.464 12.536 56 28 56Z" fill="url(#paint0_linear_3781_54329)"/>
<path d="M28.4814 30.5392C28.6413 30.0577 28.65 29.5366 28.5061 29.0497L30.7679 24.396C30.8232 24.2856 30.8567 24.1651 30.8664 24.0413C30.8761 23.9175 30.8618 23.793 30.8244 23.675C30.7869 23.5569 30.7271 23.4477 30.6483 23.3537C30.5695 23.2596 30.4733 23.1826 30.3653 23.1271C30.2574 23.0715 30.1398 23.0386 30.0193 23.0303C29.8989 23.0219 29.7781 23.0382 29.6638 23.0782C29.5496 23.1182 29.4442 23.1812 29.3538 23.2635C29.2634 23.3458 29.1898 23.4457 29.1372 23.5575L27.2068 27.5266C26.0539 26.9358 24.3015 26.0372 22.8902 25.32C21.5769 24.6481 20.638 24.0457 19.0411 24.0457H18.2357C19.1486 24.0459 20.0336 23.7222 20.7416 23.1293C21.4495 22.5364 21.9371 21.7105 22.1222 20.7908C22.3072 19.8712 22.1783 18.914 21.7573 18.0807C21.3363 17.2474 20.6488 16.5889 19.8109 16.2163C18.9729 15.8437 18.0357 15.7797 17.1572 16.0351C16.2788 16.2905 15.5128 16.8497 14.9884 17.6185C14.464 18.3872 14.2133 19.3185 14.2785 20.2552C14.3438 21.192 14.721 22.0769 15.3465 22.7609C15.7173 23.1671 16.1652 23.4908 16.6624 23.7119C17.1596 23.933 17.6956 24.0468 18.2373 24.0462C16.7025 24.0497 15.2311 24.6767 14.1432 25.7906C13.603 26.3421 13.1747 26.9985 12.883 27.7217C12.5914 28.445 12.4424 29.2206 12.4445 30.0035V33.0167C12.4451 33.6339 12.6338 34.2353 12.984 34.7364C13.3343 35.2375 13.8284 35.6131 14.3969 35.8102V41.0509C14.3969 41.1741 14.4205 41.296 14.4663 41.4098C14.5121 41.5236 14.5792 41.627 14.6639 41.7141C14.7485 41.8012 14.849 41.8702 14.9596 41.9174C15.0702 41.9645 15.1888 41.9888 15.3085 41.9888H21.1662C21.2859 41.9888 21.4044 41.9645 21.515 41.9174C21.6256 41.8702 21.7261 41.8012 21.8108 41.7141C21.8954 41.627 21.9626 41.5236 22.0084 41.4098C22.0542 41.296 22.0778 41.1741 22.0778 41.0509V30.5144L24.9959 32.0154C25.3145 32.1798 25.6636 32.272 26.0197 32.286C26.3758 32.3 26.7307 32.2354 27.0606 32.0966C27.3904 31.9577 27.6875 31.7478 27.9319 31.481C28.1764 31.2142 28.3624 30.8966 28.4776 30.5497L28.4814 30.5392Z" fill="white"/>
<path d="M40.6916 14H27.0232C26.6471 13.9999 26.2746 14.0761 25.9271 14.2241C25.5796 14.3722 25.2639 14.5892 24.9979 14.8628C24.7319 15.1364 24.521 15.4613 24.3771 15.8188C24.2332 16.1763 24.1591 16.5594 24.1592 16.9464V23.8746L26.391 25.016L27.5058 22.7211C27.6629 22.3846 27.8834 22.0837 28.1546 21.8358C28.4259 21.5879 28.7423 21.398 29.0856 21.2772C29.4288 21.1563 29.792 21.1069 30.154 21.1319C30.516 21.1569 30.8695 21.2557 31.194 21.4226C31.5185 21.5896 31.8075 21.8212 32.0441 22.1042C32.2807 22.3871 32.4602 22.7156 32.5722 23.0706C32.6842 23.4257 32.7264 23.8 32.6964 24.172C32.6663 24.544 32.5646 24.906 32.3972 25.2372L30.4105 29.3255C30.4637 29.8683 30.4153 30.4166 30.2679 30.9407H31.58L28.1208 40.7309C28.0782 40.847 28.0584 40.9707 28.0626 41.0947C28.0668 41.2188 28.0949 41.3407 28.1452 41.4535C28.1956 41.5663 28.2672 41.6677 28.3559 41.7518C28.4446 41.8359 28.5487 41.9011 28.6621 41.9435C28.7755 41.9859 28.8959 42.0048 29.0164 41.999C29.1369 41.9931 29.2551 41.9628 29.3642 41.9096C29.4732 41.8564 29.5708 41.7815 29.6515 41.6892C29.7322 41.5969 29.7942 41.4891 29.8341 41.3719L33.5212 30.9413H34.1598L37.8844 41.3752C37.9679 41.6087 38.138 41.7986 38.3575 41.903C38.577 42.0075 38.8278 42.0179 39.0548 41.9321C39.2817 41.8463 39.4663 41.6713 39.5678 41.4455C39.6693 41.2197 39.6795 40.9616 39.5961 40.7281L36.0999 30.9407H40.6916C41.4512 30.9407 42.1796 30.6303 42.7167 30.0777C43.2538 29.5252 43.5556 28.7758 43.5556 27.9943V16.9464C43.5556 16.165 43.2538 15.4155 42.7167 14.863C42.1796 14.3104 41.4512 14 40.6916 14ZM38.7381 26.9236H34.6494C34.4076 26.9236 34.1758 26.8248 34.0048 26.6489C33.8339 26.473 33.7378 26.2345 33.7378 25.9858C33.7378 25.737 33.8339 25.4985 34.0048 25.3226C34.1758 25.1468 34.4076 25.048 34.6494 25.048H38.7381C38.9799 25.048 39.2117 25.1468 39.3827 25.3226C39.5537 25.4985 39.6497 25.737 39.6497 25.9858C39.6497 26.2345 39.5537 26.473 39.3827 26.6489C39.2117 26.8248 38.9799 26.9236 38.7381 26.9236ZM38.7381 23.4079H34.6494C34.4076 23.4079 34.1758 23.3091 34.0048 23.1332C33.8339 22.9573 33.7378 22.7188 33.7378 22.4701C33.7378 22.2214 33.8339 21.9828 34.0048 21.8069C34.1758 21.6311 34.4076 21.5323 34.6494 21.5323H38.7381C38.9799 21.5323 39.2117 21.6311 39.3827 21.8069C39.5537 21.9828 39.6497 22.2214 39.6497 22.4701C39.6497 22.7188 39.5537 22.9573 39.3827 23.1332C39.2117 23.3091 38.9799 23.4079 38.7381 23.4079ZM38.7381 19.8928H28.9788C28.737 19.8928 28.5052 19.794 28.3342 19.6181C28.1633 19.4422 28.0672 19.2037 28.0672 18.9549C28.0672 18.7062 28.1633 18.4677 28.3342 18.2918C28.5052 18.1159 28.737 18.0171 28.9788 18.0171H38.7381C38.9799 18.0171 39.2117 18.1159 39.3827 18.2918C39.5537 18.4677 39.6497 18.7062 39.6497 18.9549C39.6497 19.2037 39.5537 19.4422 39.3827 19.6181C39.2117 19.794 38.9799 19.8928 38.7381 19.8928Z" fill="white"/>
<defs>
<linearGradient id="paint0_linear_3781_54329" x1="28" y1="0" x2="28" y2="56" gradientUnits="userSpaceOnUse">
<stop stop-color="#F09819"/>
<stop offset="1" stop-color="#FF512F"/>
</linearGradient>
</defs>
</svg>
